<svg width="1628" height="600" viewBox="0 0 1628 600" fill="none" xmlns="http://www.w3.org/2000/svg">
<path fill-rule="evenodd" clip-rule="evenodd" d="M55.5041 332.907C50.6294 326.799 46.6908 319.986 44.0231 312.226C33.2166 280.796 47.8718 248.529 62.0906 217.222C65.4188 209.895 68.723 202.62 71.6712 195.42C85.4155 161.857 105.711 133.975 128.556 105.8C136.598 95.8816 143.996 84.99 151.391 74.1018C171.89 43.9179 192.372 13.7606 226.53 4.43603C275.58 -8.95378 330.164 9.46881 371.122 39.5839C385.816 50.3879 397.323 63.8719 406.857 78.9159C453.214 63.5573 510.081 51.1168 549.618 79.6693C581.198 102.476 586.185 144.435 590.998 184.932C592.228 195.281 593.447 205.534 595.095 215.348C601.71 254.74 602.501 293.658 592.028 332.205C581.45 371.135 562.524 406.006 535.219 435.714C503.33 470.408 469.247 506.501 423.083 516.016C418.992 516.859 414.86 517.593 410.698 518.214C388.591 553.011 352.391 578.204 313.75 593.698C288.646 603.764 262.273 599.721 235.464 595.611C222.222 593.581 208.874 591.534 195.519 591.163C183.392 590.827 171.165 592.044 159.035 593.252C134.431 595.702 110.226 598.113 88.0583 587.432C52.4302 570.265 24.1835 538.819 10.1632 501.854C-3.93854 464.674 -3.23456 422.441 11.4669 385.494C20.2153 363.508 37.1454 347.773 55.5041 332.907Z" fill="url(#paint0_linear_718_86)"/>
<path fill-rule="evenodd" clip-rule="evenodd" d="M264.679 288.077C264.109 283.427 260.141 279.945 255.453 279.981C250.766 280.017 246.851 283.56 246.353 288.218C243.898 311.189 240.991 362.106 240.143 409.066C239.719 432.56 239.805 455.262 240.743 473.103C241.21 482.002 241.899 489.892 242.886 496.148C243.379 499.269 243.974 502.171 244.719 504.676C245.403 506.978 246.453 509.807 248.272 512.12C264.018 532.145 298.402 563.165 363.096 571.417C425.761 579.411 468.394 575.053 496.813 563.695C504.153 560.761 507.366 554.112 508.621 548.141C509.87 542.197 509.626 535.208 508.71 528.142C506.861 513.875 501.843 496.337 496.2 479.574C490.516 462.688 484.015 446.067 478.972 433.502C477.651 430.21 476.464 427.28 475.41 424.679L475.41 424.678C474.41 422.21 473.531 420.039 472.771 418.137C472.007 416.225 471.44 414.772 471.071 413.765C470.952 413.44 470.869 413.205 470.815 413.044C470.568 411.791 470.062 410.595 469.321 409.538C466.517 405.534 463.531 399.279 462.478 392.37C461.301 384.646 462.546 376.484 468.788 369.157C471.521 365.949 475.374 362.699 480.78 359.661C482.219 358.852 483.414 357.673 484.241 356.246C487.825 350.059 489.556 343.928 489.466 337.986C489.376 332.03 487.465 326.874 484.718 322.648C479.418 314.492 470.935 309.607 464.917 307.421C463.169 306.786 461.27 306.693 459.468 307.156C440.297 312.082 409.435 335.806 400.413 389.424C395.086 394.134 386.486 395.968 374.044 393.555C360.369 390.903 344.126 383.381 328.128 372.399C312.209 361.471 297.076 347.486 285.523 332.504C273.891 317.418 266.38 301.966 264.679 288.077Z" fill="white"/>
<path fill-rule="evenodd" clip-rule="evenodd" d="M416.294 153.504C425.387 152.597 434.613 150.119 446.402 146.017C453.682 143.484 461.775 140.394 471.37 136.73L471.37 136.73L472.82 136.176C483.01 132.285 494.761 127.813 508.632 122.842C515.349 120.435 521.311 118.992 526.272 118.805C530.568 118.644 537.628 119.358 541.362 125.563C545.029 131.657 542.488 138.131 540.562 141.652C538.305 145.779 534.668 150.059 530.199 154.288C512.315 171.215 474.557 193.443 419.742 208.848C419.338 208.962 418.932 209.047 418.526 209.104C417.62 209.343 416.498 209.637 415.204 209.97C409.697 211.386 400.897 213.56 391.125 215.571C381.403 217.572 370.479 219.462 360.787 220.245C355.947 220.636 351.189 220.77 346.922 220.442C342.854 220.13 338.295 219.339 334.489 217.229C333.738 216.813 333.049 216.294 332.442 215.687C332.159 215.404 331.88 215.108 331.607 214.798L120.31 318.51C115.889 320.681 110.541 318.996 108.165 314.685C93.2337 287.601 78.6465 243.117 83.5869 197.151C88.0547 155.583 108.48 113.361 157.488 82.3898C155.408 76.6754 158.824 69.3784 165.749 65.3836C173.061 61.1654 181.608 62.1736 185.235 67.5577C244.884 40.9774 296.827 51.5018 336.815 74.5366C375.346 96.7328 402.786 130.473 416.294 153.504Z" fill="white"/>
<path d="M720.877 160.842V321.947H678.858V160.842H720.877ZM680.474 123.306C675.087 117.991 672.393 111.458 672.393 103.707C672.393 95.9565 675.087 89.4237 680.474 84.1089C685.861 78.7941 692.325 76.1367 699.867 76.1367C707.409 76.1367 713.874 78.7941 719.261 84.1089C724.648 89.4237 727.342 95.9565 727.342 103.707C727.342 111.458 724.648 117.991 719.261 123.306C713.874 128.62 707.409 131.278 699.867 131.278C692.325 131.278 685.861 128.62 680.474 123.306Z" fill="white"/>
<path d="M863.994 265.477V217.311C854.298 204.024 841.368 197.381 825.207 197.381C813.355 197.381 803.658 201.81 796.116 210.668C788.574 219.304 784.803 229.602 784.803 241.56C784.803 254.183 788.682 264.702 796.44 273.117C804.413 281.311 814.325 285.407 826.177 285.407C842.338 285.407 854.944 278.764 863.994 265.477ZM906.014 160.842V321.947H865.611V308.992C853.112 319.843 838.567 325.268 821.975 325.268C797.84 325.268 778.123 316.189 762.824 298.03C749.464 282.086 742.784 263.262 742.784 241.56C742.784 217.865 750.218 197.934 765.086 181.769C780.17 165.603 798.379 157.52 819.712 157.52C837.382 157.52 852.681 162.945 865.611 173.796V160.842H906.014Z" fill="white"/>
<path d="M982.857 160.842V321.947H940.837V160.842H982.857ZM942.453 123.306C937.066 117.991 934.373 111.458 934.373 103.707C934.373 95.9565 937.066 89.4237 942.453 84.1089C947.84 78.7941 954.305 76.1367 961.847 76.1367C969.389 76.1367 975.854 78.7941 981.241 84.1089C986.628 89.4237 989.321 95.9565 989.321 103.707C989.321 111.458 986.628 117.991 981.241 123.306C975.854 128.62 969.389 131.278 961.847 131.278C954.305 131.278 947.84 128.62 942.453 123.306Z" fill="white"/>
<path d="M1059.71 321.947H1017.69V160.842H1058.1V173.796C1071.03 162.945 1085.79 157.52 1102.38 157.52C1124.57 157.52 1142.67 166.156 1156.68 183.429C1167.46 196.495 1172.84 215.318 1172.84 239.899V321.947H1130.82V236.578C1130.82 222.848 1127.7 212.772 1121.45 206.35C1115.63 200.37 1107.77 197.381 1097.85 197.381C1089.88 197.381 1082.34 199.485 1075.23 203.692C1068.33 207.678 1063.16 212.218 1059.71 217.311V321.947Z" fill="white"/>
<path d="M659.998 502.775L680.361 471.883C691.782 482.512 706.112 487.827 723.351 487.827C728.954 487.827 733.694 486.609 737.573 484.173C741.452 481.516 743.391 478.194 743.391 474.208C743.391 469.779 740.805 466.014 735.634 462.914C730.462 459.814 724.105 457.045 716.563 454.61C709.237 452.174 701.802 449.405 694.26 446.305C686.718 442.983 680.361 438.001 675.19 431.357C670.018 424.492 667.432 416.299 667.432 406.776C667.432 391.939 673.358 379.87 685.21 370.569C697.277 361.268 711.391 356.618 727.553 356.618C737.25 356.618 747.162 358.279 757.29 361.6C767.418 364.701 775.175 368.465 780.562 372.894L760.845 404.119C750.933 396.811 740.913 393.157 730.785 393.157C724.752 393.157 719.688 394.375 715.593 396.811C711.499 399.025 709.452 402.126 709.452 406.112C709.452 409.877 712.038 413.088 717.21 415.745C722.381 418.402 728.738 420.949 736.28 423.385C743.822 425.821 751.256 428.811 758.583 432.354C766.125 435.676 772.482 440.99 777.653 448.298C782.825 455.385 785.411 464.132 785.411 474.54C785.411 489.377 779.27 501.446 766.987 510.747C754.92 519.827 740.267 524.366 723.028 524.366C699.971 524.366 678.961 517.169 659.998 502.775Z" fill="white"/>
<path d="M866.205 521.045H824.186V359.939H864.589V372.894C876.441 362.043 890.555 356.618 906.932 356.618C928.481 356.618 946.043 365.033 959.619 381.863C975.134 365.033 993.665 356.618 1015.21 356.618C1025.99 356.618 1036.22 358.943 1045.92 363.593C1055.83 368.244 1063.91 374.555 1070.16 382.527C1080.72 395.814 1086 413.53 1086 435.676V521.045H1043.98V434.015C1043.98 421.613 1041.4 412.423 1036.22 406.444C1030.41 399.801 1022.54 396.479 1012.63 396.479C1004.44 396.479 996.898 398.693 990.002 403.122C983.322 407.551 978.258 412.423 974.81 417.738C975.672 424.824 976.103 430.804 976.103 435.676V521.045H934.084V434.015C934.084 421.613 931.498 412.423 926.326 406.444C920.508 399.801 912.643 396.479 902.73 396.479C888.508 396.479 876.333 403.122 866.205 416.409V521.045Z" fill="white"/>
<path d="M1173.34 359.939V521.045H1131.32V359.939H1173.34Z" fill="white"/>
<path d="M1333.42 484.505L1339.89 521.045C1333.85 523.259 1325.13 524.366 1313.71 524.366C1288.71 524.366 1270.61 516.616 1259.4 501.114C1251.65 490.484 1247.77 474.429 1247.77 452.949V396.479H1204.13V359.939H1247.77V315.096H1289.79V359.939H1341.5V396.479H1289.79V457.931C1289.79 467.232 1291.51 473.986 1294.96 478.194C1299.48 483.509 1306.59 486.166 1316.29 486.166C1322.97 486.166 1328.68 485.613 1333.42 484.505Z" fill="white"/>
<path d="M1417.65 416.409V521.045H1375.63V285.2H1417.65V371.566C1430.15 361.6 1444.37 356.618 1460.32 356.618C1482.51 356.618 1500.61 365.254 1514.62 382.527C1525.39 395.593 1530.78 414.416 1530.78 438.997V521.045H1488.76V435.676C1488.76 421.946 1485.64 411.87 1479.39 405.448C1473.57 399.468 1465.7 396.479 1455.79 396.479C1447.82 396.479 1440.28 398.583 1433.17 402.79C1426.27 406.776 1421.1 411.316 1417.65 416.409Z" fill="white"/>
<path d="M1572.16 493.474C1572.16 501.225 1574.85 507.758 1580.24 513.072C1585.63 518.387 1592.09 521.045 1599.63 521.045C1607.18 521.045 1613.64 518.387 1619.03 513.072C1624.42 507.758 1627.11 501.225 1627.11 493.474C1627.11 485.723 1624.42 479.19 1619.03 473.876C1613.64 468.561 1607.18 465.903 1599.63 465.903C1592.09 465.903 1585.63 468.561 1580.24 473.876C1574.85 479.19 1572.16 485.723 1572.16 493.474Z" fill="white"/>
<path d="M932.091 105.068C932.091 113.52 935.074 120.645 941.04 126.441C947.006 132.237 954.166 135.135 962.519 135.135C970.872 135.135 978.031 132.237 983.997 126.441C989.964 120.645 992.947 113.52 992.947 105.068C992.947 96.6149 989.964 89.4904 983.997 83.6942C978.031 77.8981 970.872 75 962.519 75C954.166 75 947.006 77.8981 941.04 83.6942C935.074 89.4904 932.091 96.6149 932.091 105.068Z" fill="url(#paint1_linear_718_86)"/>
<path d="M1566.64 494.932C1566.64 503.385 1569.62 510.51 1575.59 516.306C1581.55 522.102 1588.71 525 1597.07 525C1605.42 525 1612.58 522.102 1618.55 516.306C1624.51 510.51 1627.5 503.385 1627.5 494.932C1627.5 486.48 1624.51 479.355 1618.55 473.559C1612.58 467.763 1605.42 464.865 1597.07 464.865C1588.71 464.865 1581.55 467.763 1575.59 473.559C1569.62 479.355 1566.64 486.48 1566.64 494.932Z" fill="url(#paint2_linear_718_86)"/>
<path d="M669.168 106.221C669.168 114.674 672.151 121.798 678.117 127.594C684.084 133.39 691.243 136.289 699.596 136.289C707.949 136.289 715.109 133.39 721.075 127.594C727.041 121.798 730.024 114.674 730.024 106.221C730.024 97.7682 727.041 90.6437 721.075 84.8475C715.109 79.0514 707.949 76.1533 699.596 76.1533C691.243 76.1533 684.084 79.0514 678.117 84.8475C672.151 90.6437 669.168 97.7682 669.168 106.221Z" fill="url(#paint3_linear_718_86)"/>
<defs>
<linearGradient id="paint0_linear_718_86" x1="39" y1="544.5" x2="600" y2="130" gradientUnits="userSpaceOnUse">
<stop stop-color="#6EE7B7"/>
<stop offset="0.458333" stop-color="#3B82F6"/>
<stop offset="1" stop-color="#9333EA"/>
</linearGradient>
<linearGradient id="paint1_linear_718_86" x1="1602.5" y1="172.5" x2="1029.73" y2="-281.945" gradientUnits="userSpaceOnUse">
<stop stop-color="#6EE7B7"/>
<stop offset="0.690092" stop-color="#3B82F6"/>
<stop offset="1" stop-color="#9333EA"/>
</linearGradient>
<linearGradient id="paint2_linear_718_86" x1="1602.5" y1="172.5" x2="1029.73" y2="-281.945" gradientUnits="userSpaceOnUse">
<stop stop-color="#6EE7B7"/>
<stop offset="0.690092" stop-color="#3B82F6"/>
<stop offset="1" stop-color="#9333EA"/>
</linearGradient>
<linearGradient id="paint3_linear_718_86" x1="1602.5" y1="172.5" x2="1029.73" y2="-281.945" gradientUnits="userSpaceOnUse">
<stop stop-color="#6EE7B7"/>
<stop offset="0.690092" stop-color="#3B82F6"/>
<stop offset="1" stop-color="#9333EA"/>
</linearGradient>
</defs>
</svg>
