<?xml version="1.0" standalone="no"?>
<!DOCTYPE svg PUBLIC "-//W3C//DTD SVG 20010904//EN"
 "http://www.w3.org/TR/2001/REC-SVG-20010904/DTD/svg10.dtd">
<svg version="1.0" xmlns="http://www.w3.org/2000/svg"
 width="600.000000pt" height="600.000000pt" viewBox="0 0 600.000000 600.000000"
 preserveAspectRatio="xMidYMid meet">
<metadata>
Created by potrace 1.14, written by Peter Selinger 2001-2017
</metadata>
<g transform="translate(0.000000,600.000000) scale(0.100000,-0.100000)"
fill="#000000" stroke="none">
<path d="M2395 5983 c-163 -27 -280 -74 -395 -157 -150 -109 -266 -244 -475
-551 -124 -182 -147 -215 -250 -345 -262 -331 -395 -532 -497 -750 -49 -104
-78 -169 -78 -175 0 -2 -12 -30 -26 -62 -15 -32 -39 -85 -54 -118 -168 -369
-220 -547 -215 -742 2 -83 11 -132 38 -213 12 -35 65 -141 76 -150 3 -3 12
-16 19 -28 12 -22 10 -26 -25 -55 -319 -268 -425 -452 -498 -867 -11 -60 -14
-342 -4 -410 15 -112 19 -134 30 -175 6 -22 13 -51 15 -64 18 -96 123 -326
206 -450 142 -213 338 -393 558 -513 176 -97 339 -124 617 -104 57 4 111 9
121 11 52 10 223 19 352 19 141 1 216 -5 330 -24 30 -5 75 -11 100 -14 25 -4
90 -13 145 -22 145 -22 391 -26 489 -8 188 36 491 187 715 357 121 91 272 242
350 348 33 45 62 86 63 89 2 4 39 14 83 22 119 24 128 26 207 54 228 82 445
233 701 487 141 140 305 316 357 382 17 22 38 49 47 59 26 32 149 217 182 276
103 178 217 467 256 644 2 11 9 39 14 61 15 65 28 149 40 275 9 83 6 465 -3
525 -3 17 -8 56 -11 87 -3 31 -8 67 -10 80 -3 13 -7 41 -10 63 -3 22 -9 65
-15 95 -9 56 -18 124 -25 194 -16 145 -54 401 -71 476 -3 14 -8 34 -10 45 -20
106 -84 263 -150 366 -44 70 -111 142 -182 197 -49 38 -189 112 -212 112 -9 0
-20 4 -26 9 -5 6 -56 19 -114 31 -141 29 -316 31 -505 5 -121 -16 -332 -67
-527 -128 l-47 -15 -62 85 c-120 165 -246 281 -429 395 -207 128 -385 206
-588 257 -74 19 -100 24 -222 41 -86 12 -287 8 -375 -7z"/>
</g>
</svg>
