<svg width="100" height="100" viewBox="0 0 100 100" fill="none" xmlns="http://www.w3.org/2000/svg">
<path d="M34.288 34.0575L29.7637 29.5332L29.7828 62.2363L29.837 63.7648C29.8594 64.484 29.9928 65.2956 30.2154 66.1366L66.0641 78.7777L75.0252 74.8073L75.0285 74.7964L34.288 34.0575Z" fill="#00D2B8"/>
<path d="M30.2147 66.1361L30.2169 66.1383C30.2147 66.1235 30.207 66.1071 30.207 66.0918C30.207 66.1071 30.2092 66.1213 30.2147 66.1361ZM75.0245 74.8068L66.0634 78.7771L30.2169 66.1383C30.9016 68.7655 32.4175 71.7186 34.0488 73.3335L45.7476 84.9655L71.7597 84.9994L75.0278 74.7959L75.0245 74.8068Z" fill="#55DDCA"/>
<path d="M15.8306 50.5786C14.6723 51.8151 15.2476 54.3657 17.1124 56.2448L25.1564 64.3555L30.215 66.1366C29.9924 65.2956 29.859 64.484 29.8366 63.7648L29.7824 62.2363L29.7633 29.5332L15.8306 50.5786Z" fill="#0081C6"/>
<path d="M66.3584 29.9529C65.5173 29.738 64.7106 29.6051 63.9795 29.5821L62.364 29.5264L29.7637 29.5307L75.0329 74.7961H75.0367L79.0125 65.8263L66.3584 29.9529Z" fill="#0079B3"/>
<path d="M66.3164 29.9443C66.3339 29.9482 66.3476 29.9531 66.3591 29.9547L66.3574 29.9531C66.3476 29.9482 66.3339 29.9482 66.3164 29.9443ZM73.5483 33.7938C71.9055 32.1373 68.9912 30.6318 66.3591 29.9547L79.0116 65.8264L75.0358 74.7963H75.032L84.7477 71.6933L84.7685 45.0561L73.5483 33.7938Z" fill="#00A4E4"/>
<path d="M64.5859 24.925L56.4774 16.8761C54.6022 15.0183 52.0505 14.4403 50.8173 15.5953L29.7637 29.5308L62.364 29.5264L63.9794 29.5822C64.7106 29.6051 65.5173 29.738 66.3584 29.953L64.5859 24.925Z" fill="#00D2B8"/>
<mask id="mask0_706_31" style="mask-type:alpha" maskUnits="userSpaceOnUse" x="0" y="0" width="100" height="100">
<circle cx="50" cy="50" r="50" fill="#C4C4C4"/>
</mask>
<g mask="url(#mask0_706_31)">
</g>
</svg>
