<svg width="1628" height="600" viewBox="0 0 1628 600" fill="none" xmlns="http://www.w3.org/2000/svg">
<path fill-rule="evenodd" clip-rule="evenodd" d="M313.749 593.698C276.247 608.736 235.911 592.285 195.518 591.163C158.792 590.144 121.154 603.378 88.0575 587.432C52.4295 570.265 24.1827 538.819 10.1625 501.854C-3.93927 464.674 -3.2353 422.441 11.4662 385.494C25.3335 350.643 59.7587 331.498 87.8447 306.626C118.153 279.786 142.283 242.956 181.896 234.565C224.708 225.496 267.751 241.588 307.393 260.117C353.368 281.605 404.984 302.909 426.459 348.872C448.506 396.058 441.788 453.837 420.009 501.147C399.877 544.876 358.446 575.775 313.749 593.698Z" fill="white" fill-opacity="0.8"/>
<path fill-rule="evenodd" clip-rule="evenodd" d="M353.839 392.084C318.352 411.647 283.462 434.938 242.943 434.128C203.684 433.343 171.278 408.28 137.802 387.765C102.717 366.265 57.3968 351.128 44.0217 312.226C30.6858 273.439 56.126 233.378 71.6698 195.42C85.4141 161.857 105.71 133.975 128.555 105.8C158.892 68.386 180.049 17.1242 226.529 4.43603C275.579 -8.95378 330.162 9.46881 371.121 39.5839C411.16 69.0233 427.531 118.36 444.822 164.939C462.167 211.665 489.458 262.176 470.926 308.444C452.648 354.074 396.899 368.345 353.839 392.084Z" fill="white" fill-opacity="0.8"/>
<path fill-rule="evenodd" clip-rule="evenodd" d="M535.22 435.714C503.332 470.408 469.248 506.501 423.084 516.016C372.762 526.388 316.097 520.289 275.103 489.328C234.895 458.96 229.052 403.531 211.587 356.281C194.089 308.937 149.741 258.332 173.207 213.642C197.6 167.186 270.634 183.487 316.092 157.253C351.444 136.851 367.654 91.94 406.392 79.0703C452.834 63.6411 509.95 51.0212 549.619 79.6693C589.269 108.304 586.998 167.129 595.096 215.348C601.711 254.74 602.502 293.658 592.029 332.205C581.451 371.135 562.525 406.006 535.22 435.714Z" fill="white" fill-opacity="0.8"/>
<path fill-rule="evenodd" clip-rule="evenodd" d="M313.749 593.698C276.247 608.736 235.911 592.285 195.518 591.163C158.792 590.144 121.154 603.378 88.0575 587.432C52.4295 570.265 24.1827 538.819 10.1625 501.854C-3.93928 464.674 -3.2353 422.441 11.4662 385.494C25.3335 350.643 59.7587 331.498 87.8447 306.626C118.153 279.786 142.283 242.956 181.896 234.565C224.708 225.496 267.751 241.588 307.393 260.117C353.368 281.605 404.984 302.909 426.459 348.872C448.506 396.058 441.788 453.837 420.009 501.147C399.877 544.876 358.446 575.775 313.749 593.698Z" fill="#DBFF00" fill-opacity="0.8"/>
<path fill-rule="evenodd" clip-rule="evenodd" d="M353.839 392.084C318.352 411.647 283.462 434.938 242.943 434.128C203.684 433.343 171.278 408.28 137.802 387.765C102.717 366.265 57.3975 351.128 44.0223 312.226C30.6864 273.439 56.1266 233.378 71.6705 195.42C85.4147 161.857 105.71 133.975 128.555 105.8C158.892 68.386 180.049 17.1242 226.529 4.43603C275.579 -8.95378 330.163 9.46881 371.121 39.5839C411.161 69.0233 427.532 118.36 444.822 164.939C462.168 211.665 489.459 262.176 470.926 308.444C452.649 354.074 396.899 368.345 353.839 392.084Z" fill="#3300FF" fill-opacity="0.8"/>
<path fill-rule="evenodd" clip-rule="evenodd" d="M535.22 435.714C503.332 470.408 469.248 506.501 423.084 516.016C372.762 526.388 316.097 520.289 275.103 489.328C234.895 458.96 229.052 403.531 211.587 356.281C194.089 308.937 149.742 258.332 173.207 213.642C197.6 167.186 270.634 183.487 316.092 157.253C351.444 136.851 367.655 91.94 406.392 79.0703C452.834 63.6411 509.95 51.0212 549.619 79.6693C589.269 108.304 586.998 167.129 595.096 215.348C601.711 254.74 602.502 293.658 592.029 332.205C581.451 371.135 562.525 406.006 535.22 435.714Z" fill="#00FFA3" fill-opacity="0.8"/>
<path fill-rule="evenodd" clip-rule="evenodd" d="M251.452 274.198C250.883 269.549 246.914 266.066 242.227 266.102C237.539 266.138 233.624 269.681 233.127 274.339C230.671 297.31 227.764 348.227 226.916 395.187C226.492 418.681 226.579 441.383 227.516 459.224C227.984 468.123 228.673 476.013 229.66 482.269C230.153 485.391 230.748 488.292 231.492 490.797C232.176 493.099 233.227 495.928 235.045 498.241C250.791 518.266 285.175 549.286 349.869 557.538C412.535 565.532 455.168 561.174 483.586 549.816C490.926 546.882 494.139 540.233 495.394 534.262C496.644 528.318 496.4 521.329 495.484 514.263C493.634 499.996 488.617 482.458 482.973 465.695C477.289 448.809 470.789 432.189 465.746 419.623C464.425 416.331 463.238 413.401 462.184 410.8L462.184 410.799C461.184 408.331 460.304 406.16 459.544 404.258C458.78 402.346 458.213 400.893 457.844 399.886C457.725 399.561 457.643 399.326 457.589 399.165C457.342 397.912 456.835 396.716 456.095 395.659C453.29 391.655 450.305 385.4 449.252 378.491C448.074 370.767 449.319 362.605 455.562 355.278C458.294 352.071 462.147 348.82 467.554 345.782C468.992 344.973 470.187 343.794 471.014 342.367C474.599 336.18 476.33 330.049 476.24 324.107C476.15 318.151 474.239 312.995 471.492 308.769C466.191 300.614 457.708 295.728 451.691 293.542C449.943 292.907 448.043 292.814 446.242 293.277C427.071 298.203 396.208 321.927 387.186 375.545C381.859 380.255 373.259 382.089 360.818 379.676C347.142 377.024 330.899 369.502 314.901 358.52C298.983 347.592 283.85 333.607 272.297 318.625C260.664 303.539 253.154 288.088 251.452 274.198Z" fill="#1E3143"/>
<path fill-rule="evenodd" clip-rule="evenodd" d="M403.066 139.625C412.158 138.718 421.384 136.24 433.173 132.139C440.453 129.606 448.546 126.515 458.141 122.851L458.142 122.851L459.591 122.298C469.781 118.407 481.532 113.935 495.404 108.963C502.12 106.556 508.083 105.113 513.044 104.927C517.34 104.766 524.4 105.48 528.134 111.685C531.801 117.779 529.26 124.253 527.334 127.774C525.076 131.901 521.439 136.18 516.97 140.41C499.087 157.337 461.328 179.565 406.514 194.97C406.109 195.084 405.703 195.169 405.298 195.226C404.392 195.465 403.27 195.758 401.976 196.091C396.468 197.508 387.669 199.681 377.897 201.692C368.174 203.693 357.251 205.583 347.559 206.366C342.718 206.757 337.961 206.891 333.694 206.564C329.626 206.251 325.066 205.461 321.26 203.35C320.51 202.934 319.821 202.415 319.214 201.809C318.931 201.526 318.651 201.229 318.378 200.919L107.081 304.632C102.66 306.802 97.3129 305.118 94.9363 300.807C80.0052 273.723 65.418 229.238 70.3584 183.273C74.8261 141.704 95.2511 99.4825 144.26 68.5114C142.18 62.797 145.595 55.5 152.52 51.5052C159.832 47.287 168.379 48.2952 172.007 53.6792C231.656 27.099 283.599 37.6233 323.586 60.6582C362.118 82.8544 389.557 116.595 403.066 139.625Z" fill="#1E3143"/>
<path d="M720.879 160.841V321.947H678.859V160.841H720.879ZM680.476 123.306C675.088 117.991 672.395 111.458 672.395 103.707C672.395 95.9564 675.088 89.4236 680.476 84.1088C685.863 78.794 692.327 76.1366 699.869 76.1366C707.411 76.1366 713.876 78.794 719.263 84.1088C724.65 89.4236 727.344 95.9564 727.344 103.707C727.344 111.458 724.65 117.991 719.263 123.306C713.876 128.62 707.411 131.278 699.869 131.278C692.327 131.278 685.863 128.62 680.476 123.306Z" fill="white"/>
<path d="M863.996 265.477V217.311C854.3 204.024 841.37 197.381 825.209 197.381C813.357 197.381 803.66 201.81 796.118 210.668C788.576 219.304 784.805 229.602 784.805 241.56C784.805 254.183 788.684 264.702 796.442 273.117C804.415 281.31 814.327 285.407 826.179 285.407C842.34 285.407 854.946 278.764 863.996 265.477ZM906.016 160.841V321.947H865.613V308.992C853.114 319.843 838.569 325.268 821.977 325.268C797.842 325.268 778.125 316.189 762.826 298.03C749.466 282.086 742.786 263.262 742.786 241.56C742.786 217.865 750.22 197.934 765.088 181.768C780.172 165.603 798.381 157.52 819.714 157.52C837.384 157.52 852.683 162.945 865.613 173.796V160.841H906.016Z" fill="white"/>
<path d="M982.859 160.841V321.947H940.839V160.841H982.859ZM942.455 123.306C937.068 117.991 934.374 111.458 934.374 103.707C934.374 95.9564 937.068 89.4236 942.455 84.1088C947.842 78.794 954.307 76.1366 961.849 76.1366C969.391 76.1366 975.855 78.794 981.243 84.1088C986.63 89.4236 989.323 95.9564 989.323 103.707C989.323 111.458 986.63 117.991 981.243 123.306C975.855 128.62 969.391 131.278 961.849 131.278C954.307 131.278 947.842 128.62 942.455 123.306Z" fill="white"/>
<path d="M1059.71 321.947H1017.69V160.841H1058.1V173.796C1071.03 162.945 1085.79 157.52 1102.38 157.52C1124.58 157.52 1142.68 166.156 1156.68 183.429C1167.46 196.495 1172.84 215.318 1172.84 239.899V321.947H1130.82V236.577C1130.82 222.848 1127.7 212.772 1121.45 206.349C1115.63 200.37 1107.77 197.381 1097.86 197.381C1089.88 197.381 1082.34 199.484 1075.23 203.692C1068.33 207.678 1063.16 212.218 1059.71 217.311V321.947Z" fill="white"/>
<path d="M660 502.775L680.363 471.883C691.784 482.512 706.114 487.827 723.353 487.827C728.956 487.827 733.696 486.609 737.575 484.173C741.454 481.516 743.393 478.194 743.393 474.208C743.393 469.779 740.807 466.014 735.636 462.914C730.464 459.813 724.107 457.045 716.565 454.609C709.239 452.173 701.804 449.405 694.262 446.305C686.72 442.983 680.363 438.001 675.192 431.357C670.02 424.492 667.434 416.298 667.434 406.776C667.434 391.939 673.36 379.87 685.212 370.569C697.279 361.268 711.393 356.618 727.555 356.618C737.252 356.618 747.164 358.278 757.292 361.6C767.42 364.701 775.177 368.465 780.564 372.894L760.847 404.119C750.935 396.811 740.915 393.157 730.787 393.157C724.754 393.157 719.69 394.375 715.595 396.811C711.501 399.025 709.454 402.126 709.454 406.112C709.454 409.876 712.04 413.087 717.212 415.745C722.383 418.402 728.74 420.949 736.282 423.385C743.824 425.821 751.258 428.81 758.585 432.354C766.127 435.675 772.484 440.99 777.655 448.298C782.827 455.384 785.413 464.132 785.413 474.54C785.413 489.377 779.271 501.446 766.989 510.747C754.922 519.827 740.269 524.366 723.03 524.366C699.973 524.366 678.963 517.169 660 502.775Z" fill="white"/>
<path d="M866.207 521.045H824.188V359.939H864.591V372.894C876.443 362.043 890.557 356.618 906.934 356.618C928.483 356.618 946.045 365.033 959.621 381.863C975.136 365.033 993.667 356.618 1015.22 356.618C1025.99 356.618 1036.23 358.943 1045.92 363.593C1055.84 368.244 1063.92 374.555 1070.16 382.527C1080.72 395.814 1086 413.53 1086 435.675V521.045H1043.98V434.014C1043.98 421.613 1041.4 412.423 1036.23 406.444C1030.41 399.8 1022.54 396.479 1012.63 396.479C1004.44 396.479 996.9 398.693 990.004 403.122C983.324 407.551 978.26 412.423 974.812 417.738C975.674 424.824 976.105 430.803 976.105 435.675V521.045H934.085V434.014C934.085 421.613 931.5 412.423 926.328 406.444C920.51 399.8 912.645 396.479 902.732 396.479C888.51 396.479 876.335 403.122 866.207 416.409V521.045Z" fill="white"/>
<path d="M1173.34 359.939V521.045H1131.32V359.939H1173.34Z" fill="white"/>
<path d="M1333.42 484.505L1339.89 521.045C1333.86 523.259 1325.13 524.366 1313.71 524.366C1288.71 524.366 1270.61 516.616 1259.41 501.114C1251.65 490.484 1247.77 474.429 1247.77 452.949V396.479H1204.13V359.939H1247.77V315.096H1289.79V359.939H1341.51V396.479H1289.79V457.931C1289.79 467.232 1291.51 473.986 1294.96 478.194C1299.49 483.509 1306.6 486.166 1316.29 486.166C1322.97 486.166 1328.68 485.612 1333.42 484.505Z" fill="white"/>
<path d="M1417.65 416.409V521.045H1375.63V285.2H1417.65V371.565C1430.15 361.6 1444.37 356.618 1460.32 356.618C1482.51 356.618 1500.62 365.254 1514.62 382.527C1525.4 395.593 1530.78 414.416 1530.78 438.997V521.045H1488.76V435.675C1488.76 421.945 1485.64 411.869 1479.39 405.447C1473.57 399.468 1465.71 396.479 1455.79 396.479C1447.82 396.479 1440.28 398.582 1433.17 402.79C1426.27 406.776 1421.1 411.316 1417.65 416.409Z" fill="white"/>
<path d="M1572.16 493.474C1572.16 501.225 1574.86 507.757 1580.24 513.072C1585.63 518.387 1592.09 521.045 1599.64 521.045C1607.18 521.045 1613.64 518.387 1619.03 513.072C1624.42 507.757 1627.11 501.225 1627.11 493.474C1627.11 485.723 1624.42 479.19 1619.03 473.876C1613.64 468.561 1607.18 465.903 1599.64 465.903C1592.09 465.903 1585.63 468.561 1580.24 473.876C1574.86 479.19 1572.16 485.723 1572.16 493.474Z" fill="white"/>
<path d="M932.094 105.068C932.094 113.52 935.077 120.645 941.043 126.441C947.009 132.237 954.169 135.135 962.522 135.135C970.875 135.135 978.034 132.237 984.001 126.441C989.967 120.645 992.95 113.52 992.95 105.068C992.95 96.6149 989.967 89.4904 984.001 83.6942C978.034 77.8981 970.875 75 962.522 75C954.169 75 947.009 77.8981 941.043 83.6942C935.077 89.4904 932.094 96.6149 932.094 105.068Z" fill="#5633D6"/>
<path d="M1566.64 494.932C1566.64 503.385 1569.63 510.51 1575.59 516.306C1581.56 522.102 1588.72 525 1597.07 525C1605.42 525 1612.58 522.102 1618.55 516.306C1624.52 510.51 1627.5 503.385 1627.5 494.932C1627.5 486.48 1624.52 479.355 1618.55 473.559C1612.58 467.763 1605.42 464.865 1597.07 464.865C1588.72 464.865 1581.56 467.763 1575.59 473.559C1569.63 479.355 1566.64 486.48 1566.64 494.932Z" fill="#D9F62A"/>
<path d="M669.172 106.221C669.172 114.674 672.155 121.798 678.121 127.594C684.088 133.391 691.247 136.289 699.6 136.289C707.953 136.289 715.112 133.391 721.079 127.594C727.045 121.798 730.028 114.674 730.028 106.221C730.028 97.7682 727.045 90.6437 721.079 84.8476C715.112 79.0514 707.953 76.1533 699.6 76.1533C691.247 76.1533 684.088 79.0514 678.121 84.8476C672.155 90.6437 669.172 97.7682 669.172 106.221Z" fill="#2AF6AC"/>
</svg>
